# xmcd CD database file
#
# Track frame offsets:
#	150
#	12406
#	24738
#	37846
#	50231
#	58871
#	71555
#	81015
#	93456
#	113206
#	129477
#	142077
#	158739
#	181484
#	195237
#	210321
#	223561
#	236373
#
# Disc length: 3379 seconds
#
# Revision: 0
# Processed by: cddbd v1.5.2PL0 Copyright (c) Steve Scherf et al.
# Submitted via: CDex 1.51
#
DISCID=fa0d3112
DTITLE=Various Artist - Essential Country Volume 3
DYEAR=2002
DGENRE=Country
TTITLE0=Roy Rogers - He'll have to go
TTITLE1=Jeanne Black - He'll have to stay
TTITLE2=Charlie Rich - Cold cold heart
TTITLE3=Billie Jo Spears - What I've got in mind
TTITLE4=Moe Brandy - What would you do
TTITLE5=Tricia Yearwood - Wrong side of Memphis
TTITLE6=Floyd Tillman - Slipping around
TTITLE7=Mickey Gilley - It wasn't god who made Honky Tonk Angels
TTITLE8=Kenny Rogers - Coward of the county
TTITLE9=Larry Gatlin - Someone's number one
TTITLE10=Tex Ritter - High noon
TTITLE11=Dr. Hook - More like the movies
TTITLE12=Joe Ely - West Texas waltz
TTITLE13=Dave Dudley - The pool shark
TTITLE14=Conway Twitty - Saturday night special
TTITLE15=Charlie Rich - Your cheatin' heart
TTITLE16=Freddie Fender - Wasted days and wasted nights
TTITLE17=Crystal Gayle - Miss the Mississippi and you
EXTD=YEAR: 2002
EXTT0=
EXTT1=
EXTT2=
EXTT3=
EXTT4=
EXTT5=
EXTT6=
EXTT7=
EXTT8=
EXTT9=
EXTT10=
EXTT11=
EXTT12=
EXTT13=
EXTT14=
EXTT15=
EXTT16=
EXTT17=
PLAYORDER=
